<svg xmlns="http://www.w3.org/2000/svg" viewBox="0 0 120 116">
  <path d="M32.5 8C20.1 8 10 18.1 10 30.5v55c0 12.4 10.1 22.5 22.5 22.5h55c12.4 0 22.5-10.1 22.5-22.5v-7.5c0-10.3-6.9-19-16.4-21.7 4.8-3.4 7.9-9 7.9-15.3 0-10.4-8.4-18.8-18.8-18.8H87.5c-1.2 0-2.3.1-3.4.4C81.1 11.4 73.9 8 65.5 8h-33zm0 15h33c4.1 0 7.5 3.4 7.5 7.5S69.6 38 65.5 38h-33c-4.1 0-7.5-3.4-7.5-7.5S28.4 23 32.5 23zm0 30h48.8c4.1 0 7.5 3.4 7.5 7.5s-3.4 7.5-7.5 7.5h-48.8c-4.1 0-7.5-3.4-7.5-7.5s3.4-7.5 7.5-7.5z" fill="#00B8D4"/>
</svg>