<svg xmlns="http://www.w3.org/2000/svg" viewBox="0 0 400 85" fill="none">
  <!-- B Monogram -->
  <path d="M15 10h35c12 0 22 10 22 22 0 8-4 15-10 18 8 3 14 11 14 20 0 13-10 23-23 23H15V10zm10 10v18h25c5 0 9-4 9-9s-4-9-9-9H25zm0 28v20h28c6 0 10-4 10-10s-4-10-10-10H25z" fill="#00B8D4"/>
  
  <!-- BERGLUNDS -->
  <text x="75" y="38" font-family="system-ui, -apple-system, sans-serif" font-size="28" font-weight="700" letter-spacing="0.05em" fill="#00B8D4">BERGLUNDS</text>
  
  <!-- BYGGTJÄNST ÖSTERSUND -->
  <text x="75" y="62" font-family="system-ui, -apple-system, sans-serif" font-size="18" font-weight="500" letter-spacing="0.08em" fill="#00B8D4">BYGGTJÄNST ÖSTERSUND</text>
  
  <!-- Tagline -->
  <text x="75" y="78" font-family="system-ui, -apple-system, sans-serif" font-size="9" font-weight="400" letter-spacing="0.1em" fill="#00B8D4" opacity="0.8">Byggnation, Nyproduktion & Renoveringar</text>
</svg>